HIERARCHY
ROOT RootJoint
{
    OFFSET   0.000000   0.000000   0.000000
    CHANNELS 6 Xposition Yposition Zposition Xrotation Yrotation Zrotation
    JOINT pelvis_lowerback
    {
        OFFSET   0.000000   0.093605   0.000000
        CHANNELS 3 Xrotation Yrotation Zrotation
        JOINT lowerback_torso
        {
            OFFSET   0.000000   0.100000   0.000000
            CHANNELS 3 Xrotation Yrotation Zrotation
            JOINT torso_head
            {
                OFFSET   0.000000   0.282350   0.000000
                CHANNELS 3 Xrotation Yrotation Zrotation
                End Site
                {
                    OFFSET   0.000000   0.192650   0.000000
                }
            }
            JOINT rTorso_Clavicle
            {
                OFFSET  -0.001000   0.157500   0.000000
                CHANNELS 3 Xrotation Yrotation Zrotation
                JOINT rShoulder
                {
                    OFFSET  -0.117647   0.000000   0.000000
                    CHANNELS 3 Xrotation Yrotation Zrotation
                    JOINT rElbow
                    {
                        OFFSET  -0.245000   0.000000   0.000000
                        CHANNELS 3 Xrotation Yrotation Zrotation
                        JOINT rWrist
                        {
                            OFFSET  -0.240000   0.000000   0.000000
                            CHANNELS 3 Xrotation Yrotation Zrotation
                            End Site
                            {
                                OFFSET  -0.116353  -0.002500   0.000000
                            }
                        }
                    }
                }
            }
            JOINT lTorso_Clavicle
            {
                OFFSET   0.001000   0.157500   0.000000
                CHANNELS 3 Xrotation Yrotation Zrotation
                JOINT lShoulder
                {
                    OFFSET   0.117647   0.000000   0.000000
                    CHANNELS 3 Xrotation Yrotation Zrotation
                    JOINT lElbow
                    {
                        OFFSET   0.245000   0.000000   0.000000
                        CHANNELS 3 Xrotation Yrotation Zrotation
                        JOINT lWrist
                        {
                            OFFSET   0.240000   0.000000   0.000000
                            CHANNELS 3 Xrotation Yrotation Zrotation
                            End Site
                            {
                                OFFSET   0.116353  -0.002500   0.000000
                            }
                        }
                    }
                }
            }
        }
    }
    JOINT rHip
    {
        OFFSET  -0.100000  -0.051395   0.000000
        CHANNELS 3 Xrotation Yrotation Zrotation
        JOINT rKnee
        {
            OFFSET   0.000000  -0.410000   0.000000
            CHANNELS 3 Xrotation Yrotation Zrotation
            JOINT rAnkle
            {
                OFFSET   0.000000  -0.390000   0.000000
                CHANNELS 3 Xrotation Yrotation Zrotation
                JOINT rToeJoint
                {
                    OFFSET   0.000000  -0.050000   0.130000
                    CHANNELS 3 Xrotation Yrotation Zrotation
                    End Site
                    {
                        OFFSET  -0.010000   0.002000   0.060000
                    }
                }
            }
        }
    }
    JOINT lHip
    {
        OFFSET   0.100000  -0.051395   0.000000
        CHANNELS 3 Xrotation Yrotation Zrotation
        JOINT lKnee
        {
            OFFSET   0.000000  -0.410000   0.000000
            CHANNELS 3 Xrotation Yrotation Zrotation
            JOINT lAnkle
            {
                OFFSET   0.000000  -0.390000   0.000000
                CHANNELS 3 Xrotation Yrotation Zrotation
                JOINT lToeJoint
                {
                    OFFSET   0.000000  -0.050000   0.130000
                    CHANNELS 3 Xrotation Yrotation Zrotation
                    End Site
                    {
                        OFFSET   0.010000   0.002000   0.060000
                    }
                }
            }
        }
    }
}
MOTION
Frames: 8
Frame Time:   0.008333
 -2.237072   0.921452   4.123140 -177.426135 -23.962766 177.695528   4.413027  -0.845842  -1.442184   2.264835  -1.985351   2.077005  -1.014525   0.249448   2.110764   2.950494  -2.379700   9.955308   5.169585   3.967964  50.785540  -0.000184  18.784205  -0.000050  -1.150942   3.563451  -2.533599   4.147462   0.093233  -9.097038   3.762923  -5.651668 -53.190843  -0.000024 -18.502298  -0.000102  -1.114182  -2.926147   5.861043   4.587096  -1.746517  -0.262749   8.244930   0.000078  -0.000008  -2.249855  -7.082606   4.172123 -11.975547  -0.000289  -0.000048   8.367130  -0.133412   5.324145   2.680207   0.000135  -0.000092  -9.049166   3.179331   3.537126   0.432429  -0.000001   0.000002
 -2.236734   0.921408   4.122875 -177.402042 -23.965526 177.724183   4.361054  -0.850295  -1.422549   2.276329  -1.996864   2.085557  -0.992335   0.251673   2.091539   2.926481  -2.342218   9.943700   5.115079   3.974662  50.854172  -0.000170  18.753355  -0.000052  -1.179911   3.564110  -2.493564   4.136309   0.054325  -9.097530   3.736373  -5.681871 -53.217529  -0.000018 -18.500168  -0.000082  -1.116987  -2.915158   5.842964   4.661982  -1.755884  -0.258304   8.170745   0.000077  -0.000005  -2.299160  -7.057451   4.185190 -11.820628  -0.000296  -0.000015   8.448624  -0.119855   5.333557   2.574109   0.000133  -0.000086  -9.004638   3.169903   3.519401   0.436415  -0.000001   0.000002
 -2.236388   0.921361   4.122607 -177.377087 -23.967592 177.753049   4.310687  -0.854792  -1.405885   2.287475  -2.007185   2.092559  -0.970071   0.253572   2.073191   2.902834  -2.306968   9.932925   5.063030   3.981596  50.918867  -0.000154  18.725300  -0.000053  -1.208486   3.567460  -2.455686   4.126177   0.019159  -9.096298   3.711791  -5.709609 -53.240949  -0.000014 -18.498392  -0.000066  -1.119556  -2.906697   5.828501   4.734391  -1.764373  -0.253117   8.102175   0.000075  -0.000002  -2.347246  -7.033220   4.198216 -11.681674  -0.000295   0.000008   8.527239  -0.106685   5.343512   2.475725   0.000130  -0.000080  -8.964259   3.161314   3.502481   0.440416  -0.000002   0.000001
 -2.236033   0.921314   4.122341 -177.352778 -23.969695 177.781238   4.262114  -0.858841  -1.391232   2.296973  -2.016545   2.098482  -0.949288   0.255288   2.055821   2.880381  -2.273850   9.922699   5.014094   3.988252  50.979070  -0.000139  18.699353  -0.000052  -1.235856   3.572426  -2.420017   4.116951  -0.013327  -9.094371   3.689057  -5.735220 -53.262082  -0.000011 -18.496647  -0.000053  -1.121999  -2.898718   5.816435   4.803136  -1.772196  -0.246959   8.038450   0.000073  -0.000001  -2.393488  -7.010350   4.210825 -11.556607  -0.000288   0.000024   8.601688  -0.094339   5.354208   2.384040   0.000127  -0.000074  -8.927155   3.153249   3.486698   0.444528  -0.000002   0.000001
 -2.235672   0.921267   4.122079 -177.329417 -23.972160 177.808608   4.215478  -0.862411  -1.378134   2.304920  -2.025062   2.103490  -0.930056   0.256869   2.039484   2.859245  -2.242824   9.912759   4.968257   3.994492  51.034914  -0.000125  18.675237  -0.000050  -1.262053   3.578030  -2.386616   4.108506  -0.043459  -9.092204   3.667972  -5.758960 -53.281464  -0.000008 -18.494955  -0.000042  -1.124360  -2.890891   5.805834   4.868167  -1.779409  -0.239920   7.979011   0.000071  -0.000000  -2.437910  -6.988793   4.222987 -11.443191  -0.000277   0.000035   8.671875  -0.082943   5.365600   2.298313   0.000123  -0.000068  -8.892765   3.145511   3.472050   0.448771  -0.000002   0.000001
 -2.235311   0.921229   4.121821 -177.306427 -23.996181 177.833665   4.171557  -0.872504  -1.363444   2.312287  -2.037904   2.109044  -0.912210   0.258005   2.024326   2.840940  -2.215500   9.903111   4.926626   3.999164  51.086336  -0.000112  18.652216  -0.000046  -1.287395   3.581832  -2.356448   4.099235  -0.073235  -9.090877   3.647111  -5.782071 -53.299803  -0.000006 -18.493759  -0.000034  -1.126316  -2.884616   5.795419   4.931420  -1.763143  -0.234454   7.924445   0.000062  -0.000021  -2.475062  -6.944636   4.230871 -10.456926  -0.000602   0.000746   8.735656  -0.083228   5.382423   2.218957   0.000118  -0.000069  -8.859193   3.127944   3.459036   0.453527  -0.000002   0.000001
 -2.234942   0.921178   4.121571 -177.285894 -24.014500 177.864448   4.128510  -0.877522  -1.356797   2.317759  -2.047587   2.111333  -0.895738   0.259315   2.009972   2.823915  -2.189801   9.893801   4.887776   4.003636  51.134958  -0.000100  18.630862  -0.000042  -1.311544   3.585487  -2.326713   4.091043  -0.100117  -9.087571   3.628036  -5.803210 -53.315952  -0.000005 -18.492683  -0.000027  -1.128248  -2.879546   5.786244   4.992349  -1.757782  -0.233188   7.869699   0.000058  -0.000030  -2.524358  -6.915085   4.236913 -10.533230  -0.000454   0.000560   8.795068  -0.081621   5.391535   2.143460   0.000113  -0.000068  -8.827328   3.112790   3.446255   0.458105  -0.000003   0.000001
 -2.234575   0.921117   4.121320 -177.253616 -24.023790 177.903421   4.095227  -0.876710  -1.352010   2.326340  -2.053496   2.110205  -0.867863   0.266501   1.995832   2.792654  -2.172085   9.874469   4.833181   3.993587  51.188707  -0.000088  18.604043  -0.000048  -1.334182   3.578803  -2.285118   4.074737  -0.108732  -9.076861   3.611026  -5.832564 -53.333679  -0.000001 -18.484512  -0.000020  -1.123703  -2.869508   5.755945   5.056644  -1.758335  -0.235669   7.829771   0.000053  -0.000028  -2.584410  -6.888126   4.247229 -10.570788  -0.000348   0.000436   8.865518  -0.072098   5.396164   2.070522   0.000108  -0.000066  -8.797164   3.098600   3.425530   0.460797  -0.000002   0.000000
